DataType=double
version=3
OpenSimVersion=4.1
endheader
time	pelvis_tilt	pelvis_list	pelvis_rotation	pelvis_tx	pelvis_ty	pelvis_tz	hip_flexion_r	hip_adduction_r	hip_rotation_r	knee_angle_r	knee_angle_r_beta	ankle_angle_r	subtalar_angle_r	mtp_angle_r	hip_flexion_l	hip_adduction_l	hip_rotation_l	knee_angle_l	knee_angle_l_beta	ankle_angle_l	subtalar_angle_l	mtp_angle_l	lumbar_extension	lumbar_bending	lumbar_rotation	arm_flex_r	arm_add_r	arm_rot_r	elbow_flex_r	pro_sup_r	wrist_flex_r	wrist_dev_r	arm_flex_l	arm_add_l	arm_rot_l	elbow_flex_l	pro_sup_l	wrist_flex_l	wrist_dev_l
0	0	0	0	0	0.9399999999999999	0	0	-2.837999515590784e-09	0	0	0	0	0	0	0	-2.837999515590784e-09	0	0	0	0	0	0	0	0	0	0	0	0	0	0	0	0	0	0	0	0	0	0	0
0.01	0.0002817710594944305	6.918580111631004e-06	0.0003075279595161515	0	0.9399999999999999	0	0.005565740778726768	-0.0002656677228438503	-0.002159722666056258	0.01110785730964741	0.01110785730964741	0.005655876052103262	0	0	0.00592476924780577	-0.0002691061539831632	-0.001742756238527017	0.01139475569505063	0.01139475569505063	0.005253050378771333	0	0	0	0	0	0	-0.01775612290491994	0	0.8943861731891773	0.8682490404154571	0	0	0	-0.01775612290491994	0	0.8943861731891773	0.8682490404154571	0	0
0.02	0.0003448286579854759	-0.0001114404722294595	0.0003556344781255131	0	0.9399999999999999	0	0.005520484886684999	0.0001024605704343407	-0.002131305300013887	0.01121261193608235	0.01121261193608235	0.006059876781652354	0	0	0.005905668443803612	-0.0002909062576968538	-0.001990455745858486	0.01169338023081911	0.01169338023081911	0.006147330376922443	0	0	0	0	0	0	-0.02595893292485614	0	0.9219346193798074	0.8560362102580956	0	0	0	-0.02595893292485614	0	0.9219346193798074	0.8560362102580956	0	0
0.03	0.0002706404276669987	-1.033136964478375e-05	0.0004633391607624437	0	0.9399999999999999	0	0.005936883480261077	5.650292211551575e-06	-0.002250464123191049	0.01131526295044743	0.01131526295044743	0.005778596929097997	0	0	0.006191310406265878	-0.000229637123698754	-0.002063782412804435	0.0115431169572963	0.0115431169572963	0.005745924074146406	0	0	0	0	0	0	-0.03368079360325432	0	0.9465668879709391	0.8460924405859499	0	0	0	-0.03368079360325432	0	0.9465668879709391	0.8460924405859499	0	0
0.04	0.0003320277955648279	-0.0001407621834333134	0.0007314169827668859	0	0.9399999999999999	0	0.005994182489323137	0.0002357909614122663	-0.002549987906877782	0.01124169229248208	0.01124169229248208	0.005488815796986527	0	0	0.006430714486091324	-0.0004351395789982293	-0.001997700576868304	0.01159751944904156	0.01159751944904156	0.005360197789478873	0	0	0	0	0	0	-0.04096502687818245	0	0.9689124635604033	0.8377613585211068	0	0	0	-0.04096502687818245	0	0.9689124635604033	0.8377613585211068	0	0
0.05	0.0004353906202793563	-0.0001148520355294487	0.0007968972999443236	0	0.9399999999999999	0	0.006036105545394254	0.0002623725746069148	-0.002595723177059422	0.01115096900546893	0.01115096900546893	0.005338050955958592	0	0	0.006557291324913724	-0.0004722920970266344	-0.002125265576962022	0.01171877330074715	0.01171877330074715	0.005240644839792927	0	0	0	0	0	0	-0.04703491084718592	0	0.9865447631636834	0.8318810604428005	0	0	0	-0.04703491084718592	0	0.9865447631636834	0.8318810604428005	0	0
0.06	0.0002190452258829005	-0.0002353969294517171	0.0009344820748503441	0	0.9399999999999999	0	0.01144815787806958	0.0003156143364695779	-0.004455435241834197	0.02095651440064491	0.02095651440064491	0.01038281925563452	0	0	0.01227682125276626	-0.0007035360075869789	-0.003892914431200284	0.02178405913316945	0.02178405913316945	0.01035700676098522	0	0	0	0	0	0	-0.05288926974317631	0	1.003065904157816	0.8267016457418164	0	0	0	-0.05288926974317631	0	1.003065904157816	0.8267016457418164	0	0
0.07000000000000001	0.0005025279859618181	-6.393692714253665e-05	0.0008658675080991346	0	0.9399999999999999	0	0.006379404403883268	0.0002727959555401376	-0.002670058156639019	0.01127630327204678	0.01127630327204678	0.005086262556181591	0	0	0.007088557269820716	-0.0003552253230467092	-0.002282182705259582	0.01177931193102714	0.01177931193102714	0.004868637047360767	0	0	0	0	0	0	-0.05673580041078315	0	1.014051156638947	0.8231985177723253	0	0	0	-0.05673580041078315	0	1.014051156638947	0.8231985177723253	0	0
0.08	0.0006087734055495527	0.0001047964547792864	0.0009601967566710085	0	0.9399999999999999	0	0.006405305956861842	0.0001159432266177646	-0.002710811068036032	0.01142723773597381	0.01142723773597381	0.005242049494596241	0	0	0.007093707929430225	-0.0001605356962395027	-0.002329524397949062	0.0117931639161691	0.0117931639161691	0.004895448481292647	0	0	0	0	0	0	-0.0633802267698417	0	1.032256822335288	0.8179044755221477	0	0	0	-0.0633802267698417	0	1.032256822335288	0.8179044755221477	0	0
0.09	0.000706051544377688	-8.303834772612952e-05	0.000846483744133159	0	0.9399999999999999	0	0.006533269335818264	0.0004085321916287507	-0.002597137034623606	0.01155398736524624	0.01155398736524624	0.005355352309605509	0	0	0.00715603622949621	-0.0003915651404454641	-0.00257621586350201	0.01185819074857997	0.01185819074857997	0.005027948736800217	0	0	0	0	0	0	-0.06857262900809191	0	1.045736410569347	0.8144408982203566	0	0	0	-0.06857262900809191	0	1.045736410569347	0.8144408982203566	0	0
0.09999999999999999	0.000398339457722874	-0.0001986088611107261	0.001290025701702938	0	0.9399999999999999	0	0.01217368572955473	0.0004304340357953361	-0.004765840213596984	0.02148989740002105	0.02148989740002105	0.01057117758883437	0	0	0.01288678505017174	-0.0006249556340525528	-0.003564462454266896	0.02162231208803955	0.02162231208803955	0.009801891718799197	0	0	0	0	0	0	-0.07378854097366891	0	1.058962891736515	0.8112293723330821	0	0	0	-0.07378854097366891	0	1.058962891736515	0.8112293723330821	0	0
0.11	0.0007162193844799732	-0.0001343635643234739	0.0008495169680286074	0	0.9399999999999999	0	0.00686997780513834	0.0004446443136811943	-0.002720946759162674	0.01138780908140334	0.01138780908140334	0.004770538540406368	0	0	0.007823130277841251	-0.0005974978411016604	-0.002876021506068921	0.01203419045027389	0.01203419045027389	0.004441307958705567	0	0	0	0	0	0	-0.07696329748851238	0	1.067152013284717	0.8091678500017996	0	0	0	-0.07696329748851238	0	1.067152013284717	0.8091678500017996	0	0
